<svg viewBox="0 0 96 96" xmlns="http://www.w3.org/2000/svg" xmlns:xlink="http://www.w3.org/1999/xlink" id="Icons_HeartWithPulse_M" overflow="hidden"><g id="Icons"><path d="M81.13 28.19C79 21.87 73.09 16.5 66.3 15.85 65.838 15.804 65.381 15.782 64.933 15.782 57.065 15.782 51.333 22.623 48.008 29.193 48.008 29.203 47.996 29.203 47.992 29.193 44.781 22.839 39.473 16.293 31.81 15.81 31.5313 15.7927 31.253 15.784 30.975 15.784 24.486 15.784 18.54 20.424 15.73 26.13 12.06 33.6 15.05 42 18.91 48.71 23.0528 55.6107 28.0749 61.9437 33.85 67.55 38.2801 72.0828 43.0073 76.3155 48 80.22L48.28 80C52.6647 76.5382 56.8482 72.8288 60.81 68.89 66.5528 63.4185 71.6311 57.2896 75.94 50.63 79.94 44.19 83.76 35.83 81.13 28.19ZM59.4 67.472C55.7812 71.068 51.976 74.4714 48 77.668 43.5282 74.0883 39.2781 70.2402 35.273 66.145 29.9917 60.9983 25.3398 55.2431 21.415 49L33.451 49C33.8716 48.9802 34.2414 48.7156 34.396 48.324L38.866 35.268C38.872 35.248 38.881 35.249 38.885 35.268L44.567 64.838C44.6521 65.2784 45.02 65.6083 45.467 65.645 45.496 65.6465 45.525 65.6465 45.554 65.645 45.9688 65.6448 46.3404 65.3886 46.488 65.001L55.315 41.866C55.321 41.851 55.329 41.851 55.334 41.866L59.444 56.023C59.5996 56.5529 60.1554 56.8563 60.6853 56.7007 60.8574 56.6501 61.0127 56.5542 61.135 56.423L68.084 49 74.584 49 74.594 49.019C70.2911 55.7595 65.1894 61.9554 59.4 67.472ZM75.752 47 67.652 47C67.3787 47.0154 67.1199 47.1278 66.922 47.317L60.885 53.771C60.878 53.778 60.871 53.776 60.868 53.771L56.41 38.421C56.2553 37.8908 55.7001 37.5865 55.1699 37.7412 54.8697 37.8288 54.6277 38.0519 54.516 38.344L45.881 60.976C45.874 60.994 45.865 60.994 45.862 60.976L40.133 31.161C40.0471 30.7162 39.6729 30.3847 39.221 30.353 38.7654 30.3084 38.341 30.5892 38.204 31.026L32.735 47 20.25 47C15.841 39.046 14.916 32.322 17.524 27.014 20.243 21.493 25.648 17.784 30.975 17.784 31.212 17.784 31.449 17.792 31.685 17.806 38.785 18.25 43.505 24.743 46.215 30.111L47.991 33.63C47.991 33.64 48.004 33.64 48.008 33.63L49.785 30.112C51.657 26.405 56.885 17.782 64.933 17.782 65.318 17.782 65.712 17.802 66.109 17.841 71.842 18.39 77.239 22.908 79.239 28.841 80.935 33.769 79.784 39.739 75.752 47Z"/></g></svg>