<?xml version="1.0" standalone="no"?>
<!DOCTYPE svg PUBLIC "-//W3C//DTD SVG 20010904//EN"
 "http://www.w3.org/TR/2001/REC-SVG-20010904/DTD/svg10.dtd">
<svg version="1.0" xmlns="http://www.w3.org/2000/svg"
 width="1248.000000pt" height="1280.000000pt" viewBox="0 0 1248.000000 1280.000000"
 preserveAspectRatio="xMidYMid meet">
<g transform="translate(0.000000,1280.000000) scale(0.100000,-0.100000)"
fill="#000000" stroke="none">
<path d="M10658 12791 c-1 -5 -267 -280 -589 -612 -840 -867 -1578 -1634
-1595 -1657 -13 -19 -4 -29 144 -160 608 -543 972 -1037 1258 -1710 41 -97 81
-183 89 -191 9 -9 19 -10 31 -4 11 5 573 560 1250 1234 l1231 1224 2 943 1
942 -909 0 c-509 0 -911 -4 -913 -9z"/>
<path d="M5355 10840 c-321 -27 -617 -102 -1022 -259 -610 -238 -1217 -707
-1636 -1264 -242 -322 -563 -1014 -648 -1397 -20 -92 -25 -210 -9 -239 14 -26
166 -128 305 -203 139 -76 189 -98 220 -98 43 0 79 65 100 182 31 179 177 649
246 796 82 176 244 437 374 602 431 550 991 932 1615 1104 298 82 823 130
1165 107 287 -19 447 -50 700 -136 476 -160 913 -432 1269 -790 537 -541 808
-1101 898 -1860 18 -150 17 -695 -1 -835 -46 -361 -156 -701 -340 -1056 -163
-314 -249 -417 -962 -1160 -505 -526 -534 -560 -729 -849 -216 -321 -414 -662
-660 -1135 -311 -599 -452 -782 -695 -901 -145 -70 -297 -109 -461 -116 -261
-11 -430 36 -725 203 -186 106 -247 121 -325 84 -54 -27 -129 -107 -156 -168
-30 -67 -28 -153 5 -226 82 -179 473 -394 857 -472 108 -22 365 -29 501 -14
309 34 612 156 862 347 84 64 245 221 322 313 138 165 217 305 365 646 167
383 321 648 569 979 217 291 410 505 825 920 485 484 635 656 831 950 203 303
345 628 475 1080 91 316 98 367 110 728 11 342 -1 818 -25 952 -51 292 -197
722 -356 1045 -306 624 -738 1113 -1329 1505 -544 360 -1047 548 -1665 621
-155 18 -706 27 -870 14z"/>
<path d="M5605 9673 c-844 -104 -1546 -516 -1970 -1153 -151 -226 -233 -405
-219 -477 8 -45 55 -91 161 -160 187 -120 255 -139 309 -84 16 17 65 90 109
163 145 242 248 378 400 531 257 258 640 464 1003 537 205 41 678 44 856 5
569 -124 1119 -537 1410 -1060 138 -249 248 -619 277 -935 10 -106 9 -145 -5
-258 -46 -362 -194 -767 -373 -1025 -66 -95 -103 -171 -96 -198 13 -47 232
-203 324 -231 51 -15 79 -5 138 48 165 149 412 657 497 1024 55 236 55 945 0
1180 -79 341 -264 736 -478 1024 -212 284 -483 527 -788 704 -392 228 -941
375 -1385 370 -77 0 -153 -3 -170 -5z"/>
<path d="M2878 4838 c-113 -98 -718 -704 -1891 -1893 l-986 -1000 0 -972 -1
-973 874 0 874 0 54 59 c29 32 357 369 728 748 1198 1222 2373 2433 2564 2642
80 88 98 124 75 145 -16 15 -791 494 -1369 846 -573 349 -784 470 -819 470
-12 0 -58 -32 -103 -72z"/>
</g>
</svg>
